# xmcd
#
# Track frame offsets:
#	150
#	14335
#	29210
#	41591
#	53811
#	63713
#	77267
#	89001
#	102063
#	117224
#	132947
#	144336
#	160843
#	171253
#	183320
#	195411
#	205891
#	220472
#	231058
#	247557
#	260038
#	270369
#	284834
#	299703
#	313053
#	325790
#	341117
#
# Disc length: 4714 seconds
#
# Revision: 1
# Processed by: cddbd v1.5.2PL0 Copyright (c) Steve Scherf et al.
# Submitted via: audiograbber 1.83.01
#
DISCID=9912681b
DTITLE=Predrag Cune Gojkovic - YU Mexikanci
DYEAR=1900
DGENRE=
TTITLE0=Ljudi me pitaju
TTITLE1=Divna Guadalahara
TTITLE2=Jedan dan zivota
TTITLE3=Dodji draga
TTITLE4=Mala avantura
TTITLE5=Ja Pijem Casu Gorkih Suza
TTITLE6=Kad cujes trubu
TTITLE7=Malkerida
TTITLE8=Mama Huanita
TTITLE9=Marika
TTITLE10=Moj Meksiko
TTITLE11=Nezenja
TTITLE12=Ostani jos jedan dan
TTITLE13=Pesma karabina
TTITLE14=Pesma majci
TTITLE15=Pevaj golubice
TTITLE16=Poslednja pesma
TTITLE17=Poslednja zelja
TTITLE18=Pozdravi, vetre, moju majku
TTITLE19=Prolaze dani, prolazi mladost
TTITLE20=Samo Jedan Dan Zivota
TTITLE21=Siromah sam druze
TTITLE22=Sta Te Briga Kako Zivim
TTITLE23=Sutra ce biti nasa svadba
TTITLE24=Vrati se
TTITLE25=Zasto da cuvam tajnu
TTITLE26=Zbog tebe moram da pijem
EXTD=
EXTT0=
EXTT1=
EXTT2=
EXTT3=
EXTT4=
EXTT5=
EXTT6=
EXTT7=
EXTT8=
EXTT9=
EXTT10=
EXTT11=
EXTT12=
EXTT13=
EXTT14=
EXTT15=
EXTT16=
EXTT17=
EXTT18=
EXTT19=
EXTT20=
EXTT21=
EXTT22=
EXTT23=
EXTT24=
EXTT25=
EXTT26=
PLAYORDER=
